<svg width="105" height="31" viewBox="0 0 105 31" fill="none" xmlns="http://www.w3.org/2000/svg"><path d="M8.26795 3C9.03775 1.66667 10.9623 1.66667 11.7321 3L16.9282 12C17.698 13.3333 16.7358 15 15.1962 15H4.80385C3.26425 15 2.302 13.3333 3.0718 12L8.26795 3Z" fill="#0066FF"></path><path d="M19.7321 28C18.9623 29.3333 17.0377 29.3333 16.2679 28L11.0718 19C10.302 17.6667 11.2642 16 12.8038 16L23.1962 16C24.7358 16 25.698 17.6667 24.9282 19L19.7321 28Z" fill="#99C2FF"></path><path d="M37.84 15.08H35.36V19.88C35.36 20.2933 35.4533 20.5933 35.64 20.78C35.8267 20.9533 36.1 21.0533 36.46 21.08C36.8333 21.0933 37.2933 21.0867 37.84 21.06V23C36.1867 23.2 35 23.06 34.28 22.58C33.56 22.0867 33.2 21.1867 33.2 19.88V15.08H31.36V13H33.2V10.84L35.36 10.2V13H37.84V15.08ZM45.0591 12.74C46.2057 12.74 47.1324 13.1067 47.8391 13.84C48.5457 14.5733 48.8991 15.58 48.8991 16.86V23H46.7391V17.08C46.7391 16.3333 46.5391 15.76 46.1391 15.36C45.7391 14.96 45.1924 14.76 44.4991 14.76C43.7391 14.76 43.1257 15 42.6591 15.48C42.1924 15.9467 41.9591 16.6667 41.9591 17.64V23H39.7991V9H41.9591V14.28C42.6124 13.2533 43.6457 12.74 45.0591 12.74ZM52.9248 18.92C53.0848 19.68 53.4515 20.2667 54.0248 20.68C54.5982 21.08 55.2982 21.28 56.1248 21.28C57.2715 21.28 58.1315 20.8667 58.7048 20.04L60.4848 21.08C59.4982 22.5333 58.0382 23.26 56.1048 23.26C54.4782 23.26 53.1648 22.7667 52.1648 21.78C51.1648 20.78 50.6648 19.52 50.6648 18C50.6648 16.5067 51.1582 15.26 52.1448 14.26C53.1315 13.2467 54.3982 12.74 55.9448 12.74C57.4115 12.74 58.6115 13.2533 59.5448 14.28C60.4915 15.3067 60.9648 16.5533 60.9648 18.02C60.9648 18.2467 60.9382 18.5467 60.8848 18.92H52.9248ZM52.9048 17.16H58.7848C58.6382 16.3467 58.2982 15.7333 57.7648 15.32C57.2448 14.9067 56.6315 14.7 55.9248 14.7C55.1248 14.7 54.4582 14.92 53.9248 15.36C53.3915 15.8 53.0515 16.4 52.9048 17.16Z" fill="#24366B"></path><path d="M68.5255 12.74C69.8988 12.74 71.0721 13.2533 72.0455 14.28C73.0188 15.2933 73.5055 16.5333 73.5055 18C73.5055 19.48 73.0188 20.7267 72.0455 21.74C71.0721 22.7533 69.8988 23.26 68.5255 23.26C67.0055 23.26 65.8388 22.7 65.0255 21.58V27H62.8655V13H65.0255V14.44C65.8388 13.3067 67.0055 12.74 68.5255 12.74ZM65.9255 20.3C66.5255 20.9 67.2788 21.2 68.1855 21.2C69.0921 21.2 69.8455 20.9 70.4455 20.3C71.0455 19.6867 71.3455 18.92 71.3455 18C71.3455 17.08 71.0455 16.32 70.4455 15.72C69.8455 15.1067 69.0921 14.8 68.1855 14.8C67.2788 14.8 66.5255 15.1067 65.9255 15.72C65.3255 16.32 65.0255 17.08 65.0255 18C65.0255 18.92 65.3255 19.6867 65.9255 20.3ZM77.1631 18.92C77.3231 19.68 77.6898 20.2667 78.2631 20.68C78.8365 21.08 79.5365 21.28 80.3631 21.28C81.5098 21.28 82.3698 20.8667 82.9431 20.04L84.7231 21.08C83.7365 22.5333 82.2765 23.26 80.3431 23.26C78.7165 23.26 77.4031 22.7667 76.4031 21.78C75.4031 20.78 74.9031 19.52 74.9031 18C74.9031 16.5067 75.3965 15.26 76.3831 14.26C77.3698 13.2467 78.6365 12.74 80.1831 12.74C81.6498 12.74 82.8498 13.2533 83.7831 14.28C84.7298 15.3067 85.2031 16.5533 85.2031 18.02C85.2031 18.2467 85.1765 18.5467 85.1231 18.92H77.1631ZM77.1431 17.16H83.0231C82.8765 16.3467 82.5365 15.7333 82.0031 15.32C81.4831 14.9067 80.8698 14.7 80.1631 14.7C79.3631 14.7 78.6965 14.92 78.1631 15.36C77.6298 15.8 77.2898 16.4 77.1431 17.16ZM88.7452 18.92C88.9052 19.68 89.2718 20.2667 89.8452 20.68C90.4185 21.08 91.1185 21.28 91.9452 21.28C93.0918 21.28 93.9518 20.8667 94.5252 20.04L96.3052 21.08C95.3185 22.5333 93.8585 23.26 91.9252 23.26C90.2985 23.26 88.9852 22.7667 87.9852 21.78C86.9852 20.78 86.4852 19.52 86.4852 18C86.4852 16.5067 86.9785 15.26 87.9652 14.26C88.9518 13.2467 90.2185 12.74 91.7652 12.74C93.2318 12.74 94.4318 13.2533 95.3652 14.28C96.3118 15.3067 96.7852 16.5533 96.7852 18.02C96.7852 18.2467 96.7585 18.5467 96.7052 18.92H88.7452ZM88.7252 17.16H94.6052C94.4585 16.3467 94.1185 15.7333 93.5852 15.32C93.0652 14.9067 92.4518 14.7 91.7452 14.7C90.9452 14.7 90.2785 14.92 89.7452 15.36C89.2118 15.8 88.8718 16.4 88.7252 17.16ZM100.846 14.68C101.392 13.44 102.419 12.82 103.926 12.82V15.16C103.099 15.1067 102.379 15.3067 101.766 15.76C101.152 16.2 100.846 16.9333 100.846 17.96V23H98.6858V13H100.846V14.68Z" fill="#24366B"></path></svg>